<svg width="1024" height="1024" viewBox="0 0 1024 1024" fill="none" xmlns="http://www.w3.org/2000/svg">
<g clip-path="url(#clip0_1_228)">
<path d="M855 -1V1024" stroke="#E1E4E8" stroke-width="6"/>
<path d="M684 -1V1024" stroke="#E1E4E8" stroke-width="6"/>
<path d="M513 -1V1024" stroke="#E1E4E8" stroke-width="6"/>
<path d="M342 -1V1024" stroke="#E1E4E8" stroke-width="6"/>
<path d="M171 -1V1024" stroke="#E1E4E8" stroke-width="6"/>
<path d="M1024 854L-1 854" stroke="#E1E4E8" stroke-width="6"/>
<path d="M1024 683L-1 683" stroke="#E1E4E8" stroke-width="6"/>
<path d="M1024 512L-1 512" stroke="#E1E4E8" stroke-width="6"/>
<path d="M1024 341L-1 341" stroke="#E1E4E8" stroke-width="6"/>
<path d="M1024 170L-1 170" stroke="#E1E4E8" stroke-width="6"/>
<g clip-path="url(#clip1_1_228)">
<rect width="1024" height="1024" transform="translate(1)" fill="#F8F9FA"/>
<path d="M856 -1V1024" stroke="#E1E4E8" stroke-width="6"/>
<path d="M685 -1V1024" stroke="#E1E4E8" stroke-width="6"/>
<path d="M514 -1V1024" stroke="#E1E4E8" stroke-width="6"/>
<path d="M343 -1V1024" stroke="#E1E4E8" stroke-width="6"/>
<path d="M172 -1V1024" stroke="#E1E4E8" stroke-width="6"/>
<path d="M1025 854L-0.00242615 854" stroke="#E1E4E8" stroke-width="6"/>
<path d="M1025 683L-0.00242615 683" stroke="#E1E4E8" stroke-width="6"/>
<path d="M1025 512L-0.00242615 512" stroke="#E1E4E8" stroke-width="6"/>
<path d="M1025 341L-0.00242615 341" stroke="#E1E4E8" stroke-width="6"/>
<path d="M1025 170L-0.00242615 170" stroke="#E1E4E8" stroke-width="6"/>
<g clip-path="url(#clip2_1_228)">
<path fill-rule="evenodd" clip-rule="evenodd" d="M233.789 1023.5C210.953 1022.68 181.52 1020.89 168.142 1018.19C147.722 1014.07 128.438 1007.82 112.4 999.647C93.5577 990.043 76.6699 977.792 62.0878 963.233C47.4723 948.645 35.1713 931.741 25.5299 912.871C17.3789 896.921 11.1301 877.754 6.98888 857.447C4.23445 843.937 2.41279 814.282 1.58698 791.3C1.25211 781.907 1.08028 769.747 1.08028 764.143L0.999634 259.937C0.999634 254.353 1.1697 242.193 1.50283 232.788C2.3146 209.953 4.1012 180.52 6.80303 167.143C10.925 146.724 17.179 127.438 25.3511 111.4C34.9556 92.556 47.206 75.6719 61.7649 61.0882C76.3524 46.4743 93.2579 34.1734 112.127 24.5303C128.08 16.381 147.247 10.1305 167.55 5.98924C181.063 3.23482 210.716 1.41315 233.7 0.589106C243.09 0.252474 255.249 0.0806511 260.857 0.0806511L765.061 0C770.647 0 782.807 0.168316 792.209 0.503193C815.047 1.31672 844.478 3.10157 857.856 5.8034C878.274 9.92714 897.561 16.1811 913.598 24.3514C932.439 33.956 949.327 46.208 963.911 60.7653C978.523 75.3548 990.824 92.2562 1000.47 111.127C1008.62 127.08 1014.87 146.245 1019.01 166.55C1021.77 180.063 1023.58 209.718 1024.41 232.7C1024.75 242.093 1024.92 254.25 1024.92 259.857L1025 764.061C1025 769.647 1024.83 781.807 1024.5 791.209C1023.68 814.047 1021.89 843.479 1019.19 856.857C1015.07 877.275 1008.82 896.562 1000.65 912.599C991.042 931.444 978.792 948.327 964.233 962.911C949.645 977.524 932.741 989.828 913.871 999.469C897.916 1007.62 878.753 1013.87 858.447 1018.01C844.937 1020.76 815.282 1022.58 792.3 1023.41C782.906 1023.75 770.746 1023.92 765.143 1023.92L260.937 1024C255.351 1024 243.19 1023.83 233.789 1023.5Z" fill="url(#paint0_radial_1_228)"/>
<mask id="mask0_1_228" style="mask-type:luminance" maskUnits="userSpaceOnUse" x="0" y="0" width="1025" height="1024">
<path fill-rule="evenodd" clip-rule="evenodd" d="M233.789 1023.5C210.953 1022.68 181.52 1020.89 168.142 1018.19C147.722 1014.07 128.438 1007.82 112.4 999.647C93.5577 990.043 76.6699 977.792 62.0878 963.233C47.4723 948.645 35.1713 931.741 25.5299 912.871C17.3789 896.921 11.1301 877.754 6.98888 857.447C4.23445 843.937 2.41279 814.282 1.58698 791.3C1.25211 781.907 1.08028 769.747 1.08028 764.143L0.999634 259.937C0.999634 254.353 1.1697 242.193 1.50283 232.788C2.3146 209.953 4.1012 180.52 6.80303 167.143C10.925 146.724 17.179 127.438 25.3511 111.4C34.9556 92.556 47.206 75.6719 61.7649 61.0882C76.3524 46.4743 93.2579 34.1734 112.127 24.5303C128.08 16.381 147.247 10.1305 167.55 5.98924C181.063 3.23482 210.716 1.41315 233.7 0.589106C243.09 0.252474 255.249 0.0806511 260.857 0.0806511L765.061 0C770.647 0 782.807 0.168316 792.209 0.503193C815.047 1.31672 844.478 3.10157 857.856 5.8034C878.274 9.92714 897.561 16.1811 913.598 24.3514C932.439 33.956 949.327 46.208 963.911 60.7653C978.523 75.3548 990.824 92.2562 1000.47 111.127C1008.62 127.08 1014.87 146.245 1019.01 166.55C1021.77 180.063 1023.58 209.718 1024.41 232.7C1024.75 242.093 1024.92 254.25 1024.92 259.857L1025 764.061C1025 769.647 1024.83 781.807 1024.5 791.209C1023.68 814.047 1021.89 843.479 1019.19 856.857C1015.07 877.275 1008.82 896.562 1000.65 912.599C991.042 931.444 978.792 948.327 964.233 962.911C949.645 977.524 932.741 989.828 913.871 999.469C897.916 1007.62 878.753 1013.87 858.447 1018.01C844.937 1020.76 815.282 1022.58 792.3 1023.41C782.906 1023.75 770.746 1023.92 765.143 1023.92L260.937 1024C255.351 1024 243.19 1023.83 233.789 1023.5Z" fill="white"/>
</mask>
<g mask="url(#mask0_1_228)">
<path fill-rule="evenodd" clip-rule="evenodd" d="M515.064 131.728C412.248 131.728 399.336 132.181 358.94 134.029C318.616 135.886 291.091 142.306 267.007 151.726C242.094 161.454 220.961 174.469 199.907 195.648C178.838 216.82 165.896 238.071 156.19 263.116C146.799 287.343 140.408 315.03 138.593 355.565C136.786 396.194 136.312 409.185 136.312 512.632C136.312 616.081 136.77 629.021 138.6 669.651C140.455 710.202 146.839 737.883 156.198 762.1C165.881 787.151 178.822 808.403 199.884 829.576C220.93 850.762 242.063 863.81 266.96 873.538C291.06 882.956 318.592 889.377 358.908 891.235C399.312 893.085 412.214 893.535 515.077 893.535C617.956 893.535 630.826 893.085 671.228 891.235C711.552 889.377 739.11 882.956 763.211 873.538C788.113 863.81 809.216 850.762 830.262 829.576C851.328 808.403 864.273 787.151 873.98 762.108C883.291 737.883 889.683 710.194 891.574 669.659C893.391 629.029 893.866 616.081 893.866 512.632C893.866 409.185 893.391 396.202 891.574 355.573C889.683 315.022 883.291 287.343 873.98 263.124C864.273 238.071 851.328 216.82 830.262 195.648C809.192 174.46 788.121 161.446 763.186 151.726C739.039 142.306 711.499 135.886 671.175 134.029C630.776 132.181 617.91 131.728 515.064 131.728ZM481.144 200.37C487.742 200.359 494.84 200.363 502.5 200.366C506.546 200.368 510.753 200.37 515.122 200.37C616.258 200.37 628.245 200.735 668.181 202.56C705.115 204.258 725.158 210.464 738.511 215.678C756.187 222.581 768.789 230.834 782.039 244.166C795.293 257.498 803.502 270.194 810.381 287.97C815.567 301.381 821.748 321.537 823.429 358.675C825.241 398.829 825.638 410.891 825.638 512.545C825.638 614.198 825.241 626.259 823.429 666.414C821.74 703.55 815.567 723.708 810.381 737.119C803.518 754.895 795.293 767.55 782.039 780.874C768.781 794.207 756.191 802.461 738.511 809.365C725.174 814.6 705.115 820.79 668.181 822.491C628.253 824.316 616.258 824.712 515.122 824.712C413.981 824.712 401.995 824.316 362.065 822.491C325.134 820.773 305.09 814.571 291.73 809.356C274.054 802.453 261.428 794.199 248.171 780.866C234.913 767.538 226.707 754.87 219.825 737.086C214.641 723.675 208.462 703.521 206.781 666.38C204.966 626.23 204.603 614.165 204.603 512.45C204.603 410.732 204.966 398.734 206.781 358.58C208.47 321.442 214.641 301.286 219.825 287.859C226.69 270.083 234.913 257.387 248.171 244.055C261.428 230.723 274.054 222.47 291.73 215.55C305.082 210.313 325.134 204.123 362.065 202.417C397.007 200.83 410.549 200.354 481.144 200.275V200.37ZM671.86 309.309C671.86 284.066 692.22 263.617 717.312 263.617V263.601C742.409 263.601 762.769 284.074 762.769 309.309C762.769 334.544 742.409 355.018 717.312 355.018C692.22 355.018 671.86 334.544 671.86 309.309ZM515.118 317.022C407.698 317.024 320.604 404.607 320.604 512.632C320.604 620.66 407.7 708.203 515.122 708.203C622.547 708.203 709.612 620.66 709.612 512.632C709.612 404.607 622.543 317.024 515.118 317.022ZM515.118 317.022H515.114C515.118 317.022 515.118 317.022 515.118 317.022ZM641.384 512.632C641.384 442.504 584.849 385.664 515.122 385.664C445.387 385.664 388.864 442.504 388.864 512.632C388.864 582.751 445.387 639.6 515.122 639.6C584.849 639.6 641.384 582.751 641.384 512.632Z" fill="white"/>
</g>
</g>
</g>
</g>
<defs>
<radialGradient id="paint0_radial_1_228" cx="0" cy="0" r="1" gradientUnits="userSpaceOnUse" gradientTransform="translate(273.001 1102.87) rotate(-90) scale(1014.86)">
<stop stop-color="#FFDD55"/>
<stop offset="0.1" stop-color="#FFDD55"/>
<stop offset="0.5" stop-color="#FF543E"/>
<stop offset="1" stop-color="#C837AB"/>
</radialGradient>
<clipPath id="clip0_1_228">
<rect width="1024" height="1024" fill="white"/>
</clipPath>
<clipPath id="clip1_1_228">
<rect width="1024" height="1024" fill="white" transform="translate(1)"/>
</clipPath>
<clipPath id="clip2_1_228">
<rect width="1024" height="1024" fill="white" transform="translate(0.999634)"/>
</clipPath>
</defs>
</svg>
