<svg width="1024" height="1024" viewBox="0 0 1024 1024" fill="none" xmlns="http://www.w3.org/2000/svg">
<g clip-path="url(#clip0_1_196)">
<rect width="1024" height="1024" fill="#F8F9FA"/>
<path d="M855 -1V1024" stroke="#E1E4E8" stroke-width="6"/>
<path d="M684 -1V1024" stroke="#E1E4E8" stroke-width="6"/>
<path d="M513 -1V1024" stroke="#E1E4E8" stroke-width="6"/>
<path d="M342 -1V1024" stroke="#E1E4E8" stroke-width="6"/>
<path d="M171 -1V1024" stroke="#E1E4E8" stroke-width="6"/>
<path d="M1024 854L-1.00244 854" stroke="#E1E4E8" stroke-width="6"/>
<path d="M1024 683L-1.00244 683" stroke="#E1E4E8" stroke-width="6"/>
<path d="M1024 512L-1.00244 512" stroke="#E1E4E8" stroke-width="6"/>
<path d="M1024 341L-1.00244 341" stroke="#E1E4E8" stroke-width="6"/>
<path d="M1024 170L-1.00244 170" stroke="#E1E4E8" stroke-width="6"/>
<g clip-path="url(#clip1_1_196)">
<path fill-rule="evenodd" clip-rule="evenodd" d="M232.789 1023.5C209.953 1022.68 180.52 1020.89 167.142 1018.19C146.722 1014.07 127.438 1007.82 111.4 999.647C92.5575 990.043 75.6698 977.792 61.0877 963.233C46.4722 948.645 34.1711 931.741 24.5298 912.871C16.3788 896.921 10.13 877.754 5.98876 857.447C3.23433 843.937 1.41266 814.282 0.586862 791.3C0.251986 781.907 0.0801629 769.747 0.0801629 764.143L-0.000488281 259.937C-0.000488281 254.353 0.169581 242.193 0.502704 232.788C1.31448 209.953 3.10108 180.52 5.80291 167.143C9.92488 146.724 16.1789 127.438 24.3509 111.4C33.9555 92.556 46.2059 75.6719 60.7648 61.0882C75.3523 46.4743 92.2578 34.1734 111.127 24.5303C127.08 16.381 146.247 10.1305 166.55 5.98924C180.062 3.23482 209.716 1.41315 232.7 0.589106C242.09 0.252474 254.249 0.0806511 259.856 0.0806511L764.06 0C769.647 0 781.807 0.168316 791.209 0.503193C814.046 1.31672 843.478 3.10157 856.856 5.8034C877.274 9.92714 896.561 16.1811 912.598 24.3514C931.439 33.956 948.327 46.208 962.91 60.7653C977.523 75.3548 989.824 92.2562 999.469 111.127C1007.62 127.08 1013.87 146.245 1018.01 166.55C1020.77 180.063 1022.58 209.718 1023.41 232.7C1023.75 242.093 1023.92 254.25 1023.92 259.857L1024 764.061C1024 769.647 1023.83 781.807 1023.5 791.209C1022.68 814.047 1020.89 843.479 1018.19 856.857C1014.07 877.275 1007.82 896.562 999.646 912.599C990.042 931.444 977.792 948.327 963.233 962.911C948.645 977.524 931.74 989.828 912.871 999.469C896.916 1007.62 877.753 1013.87 857.447 1018.01C843.936 1020.76 814.282 1022.58 791.3 1023.41C781.906 1023.75 769.746 1023.92 764.143 1023.92L259.937 1024C254.351 1024 242.19 1023.83 232.789 1023.5Z" fill="url(#paint0_radial_1_196)"/>
<mask id="mask0_1_196" style="mask-type:luminance" maskUnits="userSpaceOnUse" x="-1" y="0" width="1025" height="1024">
<path fill-rule="evenodd" clip-rule="evenodd" d="M232.789 1023.5C209.953 1022.68 180.52 1020.89 167.142 1018.19C146.722 1014.07 127.438 1007.82 111.4 999.647C92.5575 990.043 75.6698 977.792 61.0877 963.233C46.4722 948.645 34.1711 931.741 24.5298 912.871C16.3788 896.921 10.13 877.754 5.98876 857.447C3.23433 843.937 1.41266 814.282 0.586862 791.3C0.251986 781.907 0.0801629 769.747 0.0801629 764.143L-0.000488281 259.937C-0.000488281 254.353 0.169581 242.193 0.502704 232.788C1.31448 209.953 3.10108 180.52 5.80291 167.143C9.92488 146.724 16.1789 127.438 24.3509 111.4C33.9555 92.556 46.2059 75.6719 60.7648 61.0882C75.3523 46.4743 92.2578 34.1734 111.127 24.5303C127.08 16.381 146.247 10.1305 166.55 5.98924C180.062 3.23482 209.716 1.41315 232.7 0.589106C242.09 0.252474 254.249 0.0806511 259.856 0.0806511L764.06 0C769.647 0 781.807 0.168316 791.209 0.503193C814.046 1.31672 843.478 3.10157 856.856 5.8034C877.274 9.92714 896.561 16.1811 912.598 24.3514C931.439 33.956 948.327 46.208 962.91 60.7653C977.523 75.3548 989.824 92.2562 999.469 111.127C1007.62 127.08 1013.87 146.245 1018.01 166.55C1020.77 180.063 1022.58 209.718 1023.41 232.7C1023.75 242.093 1023.92 254.25 1023.92 259.857L1024 764.061C1024 769.647 1023.83 781.807 1023.5 791.209C1022.68 814.047 1020.89 843.479 1018.19 856.857C1014.07 877.275 1007.82 896.562 999.646 912.599C990.042 931.444 977.792 948.327 963.233 962.911C948.645 977.524 931.74 989.828 912.871 999.469C896.916 1007.62 877.753 1013.87 857.447 1018.01C843.936 1020.76 814.282 1022.58 791.3 1023.41C781.906 1023.75 769.746 1023.92 764.143 1023.92L259.937 1024C254.351 1024 242.19 1023.83 232.789 1023.5Z" fill="white"/>
</mask>
<g mask="url(#mask0_1_196)">
<path fill-rule="evenodd" clip-rule="evenodd" d="M514.064 131.728C411.248 131.728 398.336 132.181 357.94 134.029C317.616 135.886 290.091 142.306 266.007 151.726C241.094 161.454 219.961 174.469 198.907 195.648C177.838 216.82 164.896 238.071 155.19 263.116C145.799 287.343 139.408 315.03 137.592 355.565C135.786 396.194 135.312 409.185 135.312 512.632C135.312 616.081 135.77 629.021 137.6 669.651C139.455 710.202 145.839 737.883 155.198 762.1C164.88 787.151 177.822 808.403 198.884 829.576C219.93 850.762 241.063 863.81 265.96 873.538C290.059 882.956 317.592 889.377 357.908 891.235C398.312 893.085 411.214 893.535 514.076 893.535C616.955 893.535 629.826 893.085 670.228 891.235C710.552 889.377 738.11 882.956 762.211 873.538C787.113 863.81 808.216 850.762 829.262 829.576C850.328 808.403 863.273 787.151 872.98 762.108C882.291 737.883 888.683 710.194 890.574 669.659C892.391 629.029 892.866 616.081 892.866 512.632C892.866 409.185 892.391 396.202 890.574 355.573C888.683 315.022 882.291 287.343 872.98 263.124C863.273 238.071 850.328 216.82 829.262 195.648C808.192 174.46 787.121 161.446 762.186 151.726C738.039 142.306 710.499 135.886 670.175 134.029C629.776 132.181 616.91 131.728 514.064 131.728ZM480.144 200.37C486.742 200.359 493.84 200.363 501.499 200.366C505.546 200.368 509.753 200.37 514.122 200.37C615.258 200.37 627.245 200.735 667.181 202.56C704.115 204.258 724.157 210.464 737.511 215.678C755.187 222.581 767.789 230.834 781.039 244.166C794.293 257.498 802.502 270.194 809.381 287.97C814.567 301.381 820.748 321.537 822.429 358.675C824.241 398.829 824.637 410.891 824.637 512.545C824.637 614.198 824.241 626.259 822.429 666.414C820.74 703.55 814.567 723.708 809.381 737.119C802.518 754.895 794.293 767.55 781.039 780.874C767.781 794.207 755.191 802.461 737.511 809.365C724.174 814.6 704.115 820.79 667.181 822.491C627.253 824.316 615.258 824.712 514.122 824.712C412.981 824.712 400.995 824.316 361.065 822.491C324.134 820.773 304.09 814.571 290.73 809.356C273.054 802.453 260.428 794.199 247.17 780.866C233.913 767.538 225.706 754.87 218.825 737.086C213.641 723.675 207.461 703.521 205.781 666.38C203.966 626.23 203.603 614.165 203.603 512.45C203.603 410.732 203.966 398.734 205.781 358.58C207.47 321.442 213.641 301.286 218.825 287.859C225.69 270.083 233.913 257.387 247.17 244.055C260.428 230.723 273.054 222.47 290.73 215.55C304.082 210.313 324.134 204.123 361.065 202.417C396.007 200.83 409.549 200.354 480.144 200.275V200.37ZM670.86 309.309C670.86 284.066 691.22 263.617 716.312 263.617V263.601C741.409 263.601 761.769 284.074 761.769 309.309C761.769 334.544 741.409 355.018 716.312 355.018C691.22 355.018 670.86 334.544 670.86 309.309ZM514.118 317.022C406.698 317.024 319.604 404.607 319.604 512.632C319.604 620.66 406.7 708.203 514.122 708.203C621.547 708.203 708.612 620.66 708.612 512.632C708.612 404.607 621.543 317.024 514.118 317.022ZM514.118 317.022H514.114C514.118 317.022 514.118 317.022 514.118 317.022ZM640.384 512.632C640.384 442.504 583.849 385.664 514.122 385.664C444.387 385.664 387.863 442.504 387.863 512.632C387.863 582.751 444.387 639.6 514.122 639.6C583.849 639.6 640.384 582.751 640.384 512.632Z" fill="white"/>
</g>
</g>
</g>
<defs>
<radialGradient id="paint0_radial_1_196" cx="0" cy="0" r="1" gradientUnits="userSpaceOnUse" gradientTransform="translate(272.001 1102.87) rotate(-90) scale(1014.86)">
<stop stop-color="#FFDD55"/>
<stop offset="0.1" stop-color="#FFDD55"/>
<stop offset="0.5" stop-color="#FF543E"/>
<stop offset="1" stop-color="#C837AB"/>
</radialGradient>
<clipPath id="clip0_1_196">
<rect width="1024" height="1024" fill="white"/>
</clipPath>
<clipPath id="clip1_1_196">
<rect width="1024" height="1024" fill="white" transform="translate(-0.000488281)"/>
</clipPath>
</defs>
</svg>
