<svg width="1284" height="2778" viewBox="0 0 1284 2778" fill="none" xmlns="http://www.w3.org/2000/svg">
<g opacity="0.5">
<path d="M793.402 1163V1615.44" stroke="url(#paint0_linear_1_211)" stroke-width="2.64844"/>
<path d="M717.922 1163V1615.44" stroke="url(#paint1_linear_1_211)" stroke-width="2.64844"/>
<path d="M642.441 1163V1615.44" stroke="url(#paint2_linear_1_211)" stroke-width="2.64844"/>
<path d="M566.961 1163V1615.44" stroke="url(#paint3_linear_1_211)" stroke-width="2.64844"/>
<path d="M491.48 1163V1615.44" stroke="url(#paint4_linear_1_211)" stroke-width="2.64844"/>
</g>
<g opacity="0.5">
<path d="M868.441 1540.84L416 1540.84" stroke="url(#paint5_linear_1_211)" stroke-width="2.64844"/>
<path d="M868.441 1465.36L416 1465.36" stroke="url(#paint6_linear_1_211)" stroke-width="2.64844"/>
<path d="M868.441 1389.88L416 1389.88" stroke="url(#paint7_linear_1_211)" stroke-width="2.64844"/>
<path d="M868.441 1314.4L416 1314.4" stroke="url(#paint8_linear_1_211)" stroke-width="2.64844"/>
<path d="M868.441 1238.92L416 1238.92" stroke="url(#paint9_linear_1_211)" stroke-width="2.64844"/>
</g>
<g clip-path="url(#clip0_1_211)">
<path fill-rule="evenodd" clip-rule="evenodd" d="M518.755 1614.78C508.675 1614.42 495.683 1613.63 489.778 1612.44C480.764 1610.62 472.252 1607.86 465.173 1604.25C456.856 1600.01 449.401 1594.6 442.965 1588.18C436.513 1581.74 431.084 1574.28 426.828 1565.95C423.23 1558.91 420.472 1550.45 418.644 1541.48C417.428 1535.52 416.624 1522.43 416.259 1512.28C416.111 1508.14 416.036 1502.77 416.036 1500.3L416 1277.74C416 1275.27 416.075 1269.91 416.222 1265.75C416.58 1255.67 417.369 1242.68 418.562 1236.78C420.381 1227.76 423.142 1219.25 426.749 1212.17C430.988 1203.85 436.396 1196.4 442.822 1189.96C449.261 1183.51 456.723 1178.08 465.052 1173.83C472.094 1170.23 480.554 1167.47 489.516 1165.64C495.481 1164.43 508.57 1163.62 518.715 1163.26C522.86 1163.11 528.227 1163.04 530.702 1163.04L753.261 1163C755.727 1163 761.095 1163.07 765.245 1163.22C775.325 1163.58 788.317 1164.37 794.222 1165.56C803.235 1167.38 811.748 1170.14 818.827 1173.75C827.143 1177.99 834.598 1183.4 841.035 1189.82C847.485 1196.26 852.915 1203.72 857.172 1212.05C860.768 1219.09 863.529 1227.55 865.355 1236.52C866.573 1242.48 867.375 1255.57 867.739 1265.72C867.889 1269.86 867.964 1275.23 867.964 1277.7L868 1500.26C868 1502.73 867.925 1508.09 867.778 1512.24C867.419 1522.33 866.629 1535.32 865.437 1541.22C863.619 1550.23 860.857 1558.75 857.25 1565.83C853.011 1574.15 847.604 1581.6 841.177 1588.03C834.738 1594.49 827.276 1599.92 818.947 1604.17C811.905 1607.77 803.446 1610.53 794.483 1612.36C788.519 1613.57 775.429 1614.37 765.285 1614.74C761.138 1614.89 755.771 1614.96 753.298 1614.96L530.738 1615C528.272 1615 522.904 1614.93 518.755 1614.78Z" fill="url(#paint10_radial_1_211)"/>
<mask id="mask0_1_211" style="mask-type:luminance" maskUnits="userSpaceOnUse" x="416" y="1163" width="452" height="452">
<path fill-rule="evenodd" clip-rule="evenodd" d="M518.755 1614.78C508.675 1614.42 495.683 1613.63 489.778 1612.44C480.764 1610.62 472.252 1607.86 465.173 1604.25C456.856 1600.01 449.401 1594.6 442.965 1588.18C436.513 1581.74 431.084 1574.28 426.828 1565.95C423.23 1558.91 420.472 1550.45 418.644 1541.48C417.428 1535.52 416.624 1522.43 416.259 1512.28C416.111 1508.14 416.036 1502.77 416.036 1500.3L416 1277.74C416 1275.27 416.075 1269.91 416.222 1265.75C416.58 1255.67 417.369 1242.68 418.562 1236.78C420.381 1227.76 423.142 1219.25 426.749 1212.17C430.988 1203.85 436.396 1196.4 442.822 1189.96C449.261 1183.51 456.723 1178.08 465.052 1173.83C472.094 1170.23 480.554 1167.47 489.516 1165.64C495.481 1164.43 508.57 1163.62 518.715 1163.26C522.86 1163.11 528.227 1163.04 530.702 1163.04L753.261 1163C755.727 1163 761.095 1163.07 765.245 1163.22C775.325 1163.58 788.317 1164.37 794.222 1165.56C803.235 1167.38 811.748 1170.14 818.827 1173.75C827.143 1177.99 834.598 1183.4 841.035 1189.82C847.485 1196.26 852.915 1203.72 857.172 1212.05C860.768 1219.09 863.529 1227.55 865.355 1236.52C866.573 1242.48 867.375 1255.57 867.739 1265.72C867.889 1269.86 867.964 1275.23 867.964 1277.7L868 1500.26C868 1502.73 867.925 1508.09 867.778 1512.24C867.419 1522.33 866.629 1535.32 865.437 1541.22C863.619 1550.23 860.857 1558.75 857.25 1565.83C853.011 1574.15 847.604 1581.6 841.177 1588.03C834.738 1594.49 827.276 1599.92 818.947 1604.17C811.905 1607.77 803.446 1610.53 794.483 1612.36C788.519 1613.57 775.429 1614.37 765.285 1614.74C761.138 1614.89 755.771 1614.96 753.298 1614.96L530.738 1615C528.272 1615 522.904 1614.93 518.755 1614.78Z" fill="white"/>
</mask>
<g mask="url(#mask0_1_211)">
<path fill-rule="evenodd" clip-rule="evenodd" d="M642.911 1221.15C597.528 1221.15 591.828 1221.35 573.997 1222.16C556.198 1222.98 544.048 1225.81 533.417 1229.97C522.421 1234.27 513.093 1240.01 503.799 1249.36C494.499 1258.71 488.786 1268.09 484.502 1279.14C480.357 1289.83 477.536 1302.06 476.734 1319.95C475.937 1337.88 475.728 1343.62 475.728 1389.28C475.728 1434.94 475.93 1440.65 476.738 1458.59C477.556 1476.49 480.374 1488.71 484.506 1499.4C488.779 1510.45 494.492 1519.83 503.789 1529.18C513.079 1538.53 522.407 1544.29 533.396 1548.59C544.034 1552.74 556.187 1555.58 573.983 1556.4C591.817 1557.21 597.512 1557.41 642.917 1557.41C688.328 1557.41 694.009 1557.21 711.843 1556.4C729.642 1555.58 741.806 1552.74 752.445 1548.59C763.437 1544.29 772.752 1538.53 782.042 1529.18C791.34 1519.83 797.054 1510.45 801.339 1499.4C805.449 1488.71 808.27 1476.48 809.105 1458.59C809.907 1440.66 810.117 1434.94 810.117 1389.28C810.117 1343.62 809.907 1337.89 809.105 1319.95C808.27 1302.05 805.449 1289.83 801.339 1279.14C797.054 1268.09 791.34 1258.71 782.042 1249.36C772.741 1240.01 763.44 1234.26 752.434 1229.97C741.775 1225.81 729.619 1222.98 711.819 1222.16C693.987 1221.35 688.308 1221.15 642.911 1221.15ZM627.939 1251.44C630.851 1251.44 633.984 1251.44 637.365 1251.44C639.151 1251.44 641.009 1251.44 642.937 1251.44C687.579 1251.44 692.87 1251.61 710.498 1252.41C726.801 1253.16 735.648 1255.9 741.542 1258.2C749.345 1261.25 754.907 1264.89 760.756 1270.78C766.606 1276.66 770.229 1282.27 773.266 1290.11C775.555 1296.03 778.283 1304.93 779.025 1321.32C779.825 1339.05 780 1344.37 780 1389.24C780 1434.11 779.825 1439.43 779.025 1457.16C778.28 1473.55 775.555 1482.45 773.266 1488.37C770.237 1496.22 766.606 1501.8 760.756 1507.68C754.903 1513.57 749.346 1517.21 741.542 1520.26C735.655 1522.57 726.801 1525.3 710.498 1526.05C692.874 1526.86 687.579 1527.03 642.937 1527.03C598.293 1527.03 593.002 1526.86 575.376 1526.05C559.075 1525.29 550.227 1522.56 544.33 1520.25C536.528 1517.21 530.955 1513.56 525.103 1507.68C519.251 1501.8 515.628 1496.2 512.591 1488.35C510.303 1482.43 507.575 1473.54 506.833 1457.14C506.032 1439.42 505.872 1434.1 505.872 1389.2C505.872 1344.3 506.032 1339 506.833 1321.28C507.579 1304.89 510.303 1295.99 512.591 1290.06C515.621 1282.22 519.251 1276.61 525.103 1270.73C530.955 1264.84 536.528 1261.2 544.33 1258.15C550.224 1255.83 559.075 1253.1 575.376 1252.35C590.8 1251.65 596.778 1251.44 627.939 1251.4V1251.44ZM712.122 1299.53C712.122 1288.39 721.109 1279.36 732.185 1279.36V1279.35C743.263 1279.35 752.25 1288.39 752.25 1299.53C752.25 1310.67 743.263 1319.71 732.185 1319.71C721.109 1319.71 712.122 1310.67 712.122 1299.53ZM642.935 1302.94C595.519 1302.94 557.076 1341.6 557.076 1389.28C557.076 1436.96 595.52 1475.61 642.937 1475.61C690.355 1475.61 728.786 1436.96 728.786 1389.28C728.786 1341.6 690.353 1302.94 642.935 1302.94ZM642.935 1302.94H642.933C642.935 1302.94 642.935 1302.94 642.935 1302.94ZM698.67 1389.28C698.67 1358.32 673.715 1333.23 642.937 1333.23C612.155 1333.23 587.206 1358.32 587.206 1389.28C587.206 1420.23 612.155 1445.32 642.937 1445.32C673.715 1445.32 698.67 1420.23 698.67 1389.28Z" fill="white"/>
</g>
</g>
<defs>
<linearGradient id="paint0_linear_1_211" x1="793.902" y1="1163" x2="793.902" y2="1615.44" gradientUnits="userSpaceOnUse">
<stop stop-color="#DDDDE1" stop-opacity="0"/>
<stop offset="0.244792" stop-color="#DDDDE1"/>
<stop offset="0.765625" stop-color="#DDDDE1"/>
<stop offset="1" stop-color="#DDDDE1" stop-opacity="0"/>
</linearGradient>
<linearGradient id="paint1_linear_1_211" x1="718.422" y1="1163" x2="718.422" y2="1615.44" gradientUnits="userSpaceOnUse">
<stop stop-color="#DDDDE1" stop-opacity="0"/>
<stop offset="0.109375" stop-color="#DDDDE1"/>
<stop offset="0.885417" stop-color="#DDDDE1"/>
<stop offset="1" stop-color="#DDDDE1" stop-opacity="0"/>
</linearGradient>
<linearGradient id="paint2_linear_1_211" x1="642.941" y1="1163" x2="642.941" y2="1615.44" gradientUnits="userSpaceOnUse">
<stop stop-color="#DDDDE1" stop-opacity="0"/>
<stop offset="0.0729167" stop-color="#DDDDE1"/>
<stop offset="0.927083" stop-color="#DDDDE1"/>
<stop offset="1" stop-color="#DDDDE1" stop-opacity="0"/>
</linearGradient>
<linearGradient id="paint3_linear_1_211" x1="567.461" y1="1163" x2="567.461" y2="1615.44" gradientUnits="userSpaceOnUse">
<stop stop-color="#DDDDE1" stop-opacity="0"/>
<stop offset="0.166667" stop-color="#DDDDE1"/>
<stop offset="0.833333" stop-color="#DDDDE1"/>
<stop offset="1" stop-color="#DDDDE1" stop-opacity="0"/>
</linearGradient>
<linearGradient id="paint4_linear_1_211" x1="491.98" y1="1163" x2="491.98" y2="1615.44" gradientUnits="userSpaceOnUse">
<stop stop-color="#DDDDE1" stop-opacity="0"/>
<stop offset="0.244792" stop-color="#DDDDE1"/>
<stop offset="0.765625" stop-color="#DDDDE1"/>
<stop offset="1" stop-color="#DDDDE1" stop-opacity="0"/>
</linearGradient>
<linearGradient id="paint5_linear_1_211" x1="868.441" y1="1541.34" x2="416" y2="1541.34" gradientUnits="userSpaceOnUse">
<stop stop-color="#DDDDE1" stop-opacity="0"/>
<stop offset="0.244792" stop-color="#DDDDE1"/>
<stop offset="0.765625" stop-color="#DDDDE1"/>
<stop offset="1" stop-color="#DDDDE1" stop-opacity="0"/>
</linearGradient>
<linearGradient id="paint6_linear_1_211" x1="868.441" y1="1465.86" x2="416" y2="1465.86" gradientUnits="userSpaceOnUse">
<stop stop-color="#DDDDE1" stop-opacity="0"/>
<stop offset="0.109375" stop-color="#DDDDE1"/>
<stop offset="0.885417" stop-color="#DDDDE1"/>
<stop offset="1" stop-color="#DDDDE1" stop-opacity="0"/>
</linearGradient>
<linearGradient id="paint7_linear_1_211" x1="868.441" y1="1390.38" x2="416" y2="1390.38" gradientUnits="userSpaceOnUse">
<stop stop-color="#DDDDE1" stop-opacity="0"/>
<stop offset="0.0729167" stop-color="#DDDDE1"/>
<stop offset="0.927083" stop-color="#DDDDE1"/>
<stop offset="1" stop-color="#DDDDE1" stop-opacity="0"/>
</linearGradient>
<linearGradient id="paint8_linear_1_211" x1="868.441" y1="1314.9" x2="416" y2="1314.9" gradientUnits="userSpaceOnUse">
<stop stop-color="#DDDDE1" stop-opacity="0"/>
<stop offset="0.166667" stop-color="#DDDDE1"/>
<stop offset="0.833333" stop-color="#DDDDE1"/>
<stop offset="1" stop-color="#DDDDE1" stop-opacity="0"/>
</linearGradient>
<linearGradient id="paint9_linear_1_211" x1="868.441" y1="1239.42" x2="416" y2="1239.42" gradientUnits="userSpaceOnUse">
<stop stop-color="#DDDDE1" stop-opacity="0"/>
<stop offset="0.244792" stop-color="#DDDDE1"/>
<stop offset="0.765625" stop-color="#DDDDE1"/>
<stop offset="1" stop-color="#DDDDE1" stop-opacity="0"/>
</linearGradient>
<radialGradient id="paint10_radial_1_211" cx="0" cy="0" r="1" gradientUnits="userSpaceOnUse" gradientTransform="translate(536.063 1649.81) rotate(-90) scale(447.965)">
<stop stop-color="#FFDD55"/>
<stop offset="0.1" stop-color="#FFDD55"/>
<stop offset="0.5" stop-color="#FF543E"/>
<stop offset="1" stop-color="#C837AB"/>
</radialGradient>
<clipPath id="clip0_1_211">
<rect width="452" height="452" fill="white" transform="translate(416 1163)"/>
</clipPath>
</defs>
</svg>
